<svg xmlns="http://www.w3.org/2000/svg" xmlns:xlink="http://www.w3.org/1999/xlink" width="500" zoomAndPan="magnify" viewBox="0 0 375 374.999991" height="500" preserveAspectRatio="xMidYMid meet" version="1.0"><defs><g/></defs><rect x="-37.5" width="450" fill="#ffffff" y="-37.499999" height="449.999989" fill-opacity="1"/><rect x="-37.5" width="450" fill="#ffffff" y="-37.499999" height="449.999989" fill-opacity="1"/><g fill="#000000" fill-opacity="1"><g transform="translate(122.311037, 250.633883)"><g><path d="M 93.015625 -107.875 C 93.015625 -112.59375 91.53125 -116.703125 88.5625 -120.203125 C 85.601562 -123.710938 81.890625 -125.953125 77.421875 -126.921875 L 125.828125 -126.921875 C 122.328125 -126.429688 118.910156 -125.3125 115.578125 -123.5625 C 112.253906 -121.8125 109.082031 -119.632812 106.0625 -117.03125 C 103.039062 -114.4375 100.226562 -111.535156 97.625 -108.328125 C 95.03125 -105.128906 92.769531 -101.835938 90.84375 -98.453125 C 92.289062 -101.109375 93.015625 -104.25 93.015625 -107.875 Z M 90.84375 -98.453125 C 90.84375 -98.453125 90.71875 -98.210938 90.46875 -97.734375 C 90.71875 -98.210938 90.84375 -98.453125 90.84375 -98.453125 Z M 37.34375 -19.03125 C 37.34375 -14.320312 38.820312 -10.210938 41.78125 -6.703125 C 44.75 -3.203125 48.46875 -0.96875 52.9375 0 L 4.53125 0 C 7.914062 -0.476562 11.300781 -1.59375 14.6875 -3.34375 C 18.070312 -5.101562 21.273438 -7.28125 24.296875 -9.875 C 27.316406 -12.476562 30.125 -15.378906 32.71875 -18.578125 C 35.320312 -21.785156 37.59375 -25.082031 39.53125 -28.46875 C 38.070312 -25.6875 37.34375 -22.539062 37.34375 -19.03125 Z M 39.53125 -28.46875 C 39.769531 -28.707031 39.890625 -28.945312 39.890625 -29.1875 C 39.890625 -28.945312 39.769531 -28.707031 39.53125 -28.46875 Z M 113.140625 -11.0625 C 114.347656 -8.757812 116.160156 -6.429688 118.578125 -4.078125 C 120.992188 -1.722656 123.410156 -0.363281 125.828125 0 L 68.90625 0 C 71.070312 -0.125 72.878906 -1.117188 74.328125 -2.984375 C 75.785156 -4.859375 76.515625 -6.828125 76.515625 -8.890625 C 76.515625 -10.335938 76.09375 -11.722656 75.25 -13.046875 L 17.21875 -115.859375 C 16.613281 -116.941406 15.828125 -118.117188 14.859375 -119.390625 C 13.898438 -120.660156 12.875 -121.804688 11.78125 -122.828125 C 10.695312 -123.859375 9.519531 -124.738281 8.25 -125.46875 C 6.976562 -126.195312 5.738281 -126.679688 4.53125 -126.921875 L 61.46875 -126.921875 C 59.40625 -126.796875 57.617188 -125.796875 56.109375 -123.921875 C 54.597656 -122.046875 53.84375 -120.082031 53.84375 -118.03125 C 53.84375 -116.707031 54.269531 -115.316406 55.125 -113.859375 Z M 113.140625 -11.0625 "/></g></g></g></svg>